<mxfile host="app.diagrams.net" agent="Mozilla/5.0 (Windows NT 10.0; Win64; x64) AppleWebKit/537.36 (KHTML, like Gecko) Chrome/126.0.0.0 Safari/537.36 OPR/112.0.0.0" version="24.7.8">
  <diagram name="Page-1" id="X-4c2eXo2sJgFwLeACjw">
    <mxGraphModel grid="1" page="1" gridSize="10" guides="1" tooltips="1" connect="1" arrows="1" fold="1" pageScale="1" pageWidth="850" pageHeight="1100" math="0" shadow="0">
      <root>
        <mxCell id="0" />
        <mxCell id="1" parent="0" />
        <mxCell id="jwciJcvfcXu_lwk04Na5-18" style="edgeStyle=orthogonalEdgeStyle;rounded=0;orthogonalLoop=1;jettySize=auto;html=1;" edge="1" parent="1" source="jwciJcvfcXu_lwk04Na5-15" target="jwciJcvfcXu_lwk04Na5-9">
          <mxGeometry relative="1" as="geometry" />
        </mxCell>
        <mxCell id="jwciJcvfcXu_lwk04Na5-19" style="edgeStyle=orthogonalEdgeStyle;rounded=0;orthogonalLoop=1;jettySize=auto;html=1;" edge="1" parent="1" source="jwciJcvfcXu_lwk04Na5-15" target="jwciJcvfcXu_lwk04Na5-11">
          <mxGeometry relative="1" as="geometry">
            <Array as="points">
              <mxPoint x="685" y="160" />
              <mxPoint x="930" y="160" />
            </Array>
          </mxGeometry>
        </mxCell>
        <mxCell id="jwciJcvfcXu_lwk04Na5-6" value="" style="edgeStyle=orthogonalEdgeStyle;rounded=0;orthogonalLoop=1;jettySize=auto;html=1;" edge="1" parent="1" source="jwciJcvfcXu_lwk04Na5-1" target="jwciJcvfcXu_lwk04Na5-5">
          <mxGeometry relative="1" as="geometry" />
        </mxCell>
        <mxCell id="jwciJcvfcXu_lwk04Na5-1" value="&lt;font style=&quot;font-size: 18px;&quot;&gt;User&lt;/font&gt;" style="shape=umlActor;verticalLabelPosition=bottom;verticalAlign=top;html=1;outlineConnect=0;" vertex="1" parent="1">
          <mxGeometry x="30" y="220" width="30" height="60" as="geometry" />
        </mxCell>
        <mxCell id="jwciJcvfcXu_lwk04Na5-8" value="" style="edgeStyle=orthogonalEdgeStyle;rounded=0;orthogonalLoop=1;jettySize=auto;html=1;" edge="1" parent="1" source="jwciJcvfcXu_lwk04Na5-5" target="jwciJcvfcXu_lwk04Na5-7">
          <mxGeometry relative="1" as="geometry" />
        </mxCell>
        <mxCell id="jwciJcvfcXu_lwk04Na5-50" value="&lt;b style=&quot;font-size: 15px;&quot;&gt;&amp;lt;Include&amp;gt;&lt;/b&gt;" style="edgeLabel;html=1;align=center;verticalAlign=middle;resizable=0;points=[];" vertex="1" connectable="0" parent="jwciJcvfcXu_lwk04Na5-8">
          <mxGeometry x="-0.0503" y="1" relative="1" as="geometry">
            <mxPoint x="-1" as="offset" />
          </mxGeometry>
        </mxCell>
        <mxCell id="jwciJcvfcXu_lwk04Na5-22" value="" style="edgeStyle=orthogonalEdgeStyle;rounded=0;orthogonalLoop=1;jettySize=auto;html=1;" edge="1" parent="1" source="jwciJcvfcXu_lwk04Na5-5" target="jwciJcvfcXu_lwk04Na5-21">
          <mxGeometry relative="1" as="geometry" />
        </mxCell>
        <mxCell id="jwciJcvfcXu_lwk04Na5-48" value="&lt;b style=&quot;font-size: 15px;&quot;&gt;&amp;lt;Include&amp;gt;&lt;/b&gt;" style="edgeLabel;html=1;align=center;verticalAlign=middle;resizable=0;points=[];" vertex="1" connectable="0" parent="jwciJcvfcXu_lwk04Na5-22">
          <mxGeometry x="-0.0163" y="-1" relative="1" as="geometry">
            <mxPoint y="-1" as="offset" />
          </mxGeometry>
        </mxCell>
        <mxCell id="jwciJcvfcXu_lwk04Na5-5" value="&lt;font style=&quot;font-size: 20px;&quot;&gt;Homepage&lt;/font&gt;" style="ellipse;whiteSpace=wrap;html=1;" vertex="1" parent="1">
          <mxGeometry x="130" y="210" width="120" height="80" as="geometry" />
        </mxCell>
        <mxCell id="jwciJcvfcXu_lwk04Na5-10" value="" style="edgeStyle=orthogonalEdgeStyle;rounded=0;orthogonalLoop=1;jettySize=auto;html=1;" edge="1" parent="1" source="jwciJcvfcXu_lwk04Na5-7" target="jwciJcvfcXu_lwk04Na5-9">
          <mxGeometry relative="1" as="geometry" />
        </mxCell>
        <mxCell id="jwciJcvfcXu_lwk04Na5-51" value="&lt;b style=&quot;font-size: 15px;&quot;&gt;&amp;lt;Include&amp;gt;&lt;/b&gt;" style="edgeLabel;html=1;align=center;verticalAlign=middle;resizable=0;points=[];" vertex="1" connectable="0" parent="jwciJcvfcXu_lwk04Na5-10">
          <mxGeometry x="-0.0503" y="1" relative="1" as="geometry">
            <mxPoint x="-1" as="offset" />
          </mxGeometry>
        </mxCell>
        <mxCell id="jwciJcvfcXu_lwk04Na5-26" value="" style="edgeStyle=orthogonalEdgeStyle;rounded=0;orthogonalLoop=1;jettySize=auto;html=1;" edge="1" parent="1" source="jwciJcvfcXu_lwk04Na5-7" target="jwciJcvfcXu_lwk04Na5-25">
          <mxGeometry relative="1" as="geometry" />
        </mxCell>
        <mxCell id="jwciJcvfcXu_lwk04Na5-57" value="&lt;b style=&quot;font-size: 15px;&quot;&gt;&amp;lt;Exclude&amp;gt;&lt;/b&gt;" style="edgeLabel;html=1;align=center;verticalAlign=middle;resizable=0;points=[];" vertex="1" connectable="0" parent="jwciJcvfcXu_lwk04Na5-26">
          <mxGeometry x="-0.0234" y="-1" relative="1" as="geometry">
            <mxPoint y="1" as="offset" />
          </mxGeometry>
        </mxCell>
        <mxCell id="jwciJcvfcXu_lwk04Na5-7" value="&lt;font style=&quot;font-size: 22px;&quot;&gt;Product&lt;/font&gt;" style="ellipse;whiteSpace=wrap;html=1;" vertex="1" parent="1">
          <mxGeometry x="370" y="210" width="120" height="80" as="geometry" />
        </mxCell>
        <mxCell id="jwciJcvfcXu_lwk04Na5-12" value="" style="edgeStyle=orthogonalEdgeStyle;rounded=0;orthogonalLoop=1;jettySize=auto;html=1;" edge="1" parent="1" source="jwciJcvfcXu_lwk04Na5-9" target="jwciJcvfcXu_lwk04Na5-11">
          <mxGeometry relative="1" as="geometry" />
        </mxCell>
        <mxCell id="jwciJcvfcXu_lwk04Na5-52" value="&lt;b style=&quot;font-size: 15px;&quot;&gt;&amp;lt;Include&amp;gt;&lt;/b&gt;" style="edgeLabel;html=1;align=center;verticalAlign=middle;resizable=0;points=[];" vertex="1" connectable="0" parent="jwciJcvfcXu_lwk04Na5-12">
          <mxGeometry x="-0.012" y="5" relative="1" as="geometry">
            <mxPoint x="-1" as="offset" />
          </mxGeometry>
        </mxCell>
        <mxCell id="jwciJcvfcXu_lwk04Na5-71" value="" style="edgeStyle=orthogonalEdgeStyle;rounded=0;orthogonalLoop=1;jettySize=auto;html=1;" edge="1" parent="1" source="jwciJcvfcXu_lwk04Na5-9" target="jwciJcvfcXu_lwk04Na5-70">
          <mxGeometry relative="1" as="geometry" />
        </mxCell>
        <mxCell id="jwciJcvfcXu_lwk04Na5-76" value="&lt;b style=&quot;font-size: 15px;&quot;&gt;&amp;lt;Include&amp;gt;&lt;/b&gt;" style="edgeLabel;html=1;align=center;verticalAlign=middle;resizable=0;points=[];" vertex="1" connectable="0" parent="jwciJcvfcXu_lwk04Na5-71">
          <mxGeometry x="-0.2226" y="-3" relative="1" as="geometry">
            <mxPoint y="9" as="offset" />
          </mxGeometry>
        </mxCell>
        <mxCell id="jwciJcvfcXu_lwk04Na5-77" value="" style="edgeStyle=orthogonalEdgeStyle;rounded=0;orthogonalLoop=1;jettySize=auto;html=1;" edge="1" parent="1" source="jwciJcvfcXu_lwk04Na5-9" target="jwciJcvfcXu_lwk04Na5-70">
          <mxGeometry relative="1" as="geometry" />
        </mxCell>
        <mxCell id="jwciJcvfcXu_lwk04Na5-9" value="&lt;font style=&quot;font-size: 20px;&quot;&gt;Contact&lt;/font&gt;" style="ellipse;whiteSpace=wrap;html=1;" vertex="1" parent="1">
          <mxGeometry x="625" y="210" width="120" height="80" as="geometry" />
        </mxCell>
        <mxCell id="jwciJcvfcXu_lwk04Na5-14" value="" style="edgeStyle=orthogonalEdgeStyle;rounded=0;orthogonalLoop=1;jettySize=auto;html=1;" edge="1" parent="1" source="jwciJcvfcXu_lwk04Na5-11" target="jwciJcvfcXu_lwk04Na5-13">
          <mxGeometry relative="1" as="geometry" />
        </mxCell>
        <mxCell id="jwciJcvfcXu_lwk04Na5-53" value="&lt;b style=&quot;font-size: 15px;&quot;&gt;&amp;lt;Include&amp;gt;&lt;/b&gt;" style="edgeLabel;html=1;align=center;verticalAlign=middle;resizable=0;points=[];" vertex="1" connectable="0" parent="jwciJcvfcXu_lwk04Na5-14">
          <mxGeometry x="0.0608" y="1" relative="1" as="geometry">
            <mxPoint x="-1" as="offset" />
          </mxGeometry>
        </mxCell>
        <mxCell id="jwciJcvfcXu_lwk04Na5-83" value="" style="edgeStyle=orthogonalEdgeStyle;rounded=0;orthogonalLoop=1;jettySize=auto;html=1;" edge="1" parent="1" source="jwciJcvfcXu_lwk04Na5-11" target="jwciJcvfcXu_lwk04Na5-82">
          <mxGeometry relative="1" as="geometry" />
        </mxCell>
        <mxCell id="jwciJcvfcXu_lwk04Na5-90" value="&lt;span style=&quot;color: rgba(0, 0, 0, 0); font-family: monospace; font-size: 0px; text-align: start; background-color: rgb(251, 251, 251);&quot;&gt;%3CmxGraphModel%3E%3Croot%3E%3CmxCell%20id%3D%220%22%2F%3E%3CmxCell%20id%3D%221%22%20parent%3D%220%22%2F%3E%3CmxCell%20id%3D%222%22%20value%3D%22%26lt%3Bfont%20style%3D%26quot%3Bfont-size%3A%2020px%3B%26quot%3B%26gt%3BDetail%20About%26amp%3Bnbsp%3B%26lt%3B%2Ffont%26gt%3B%22%20style%3D%22ellipse%3BwhiteSpace%3Dwrap%3Bhtml%3D1%3B%22%20vertex%3D%221%22%20parent%3D%221%22%3E%3CmxGeometry%20x%3D%22870%22%20y%3D%22370%22%20width%3D%22110%22%20height%3D%2280%22%20as%3D%22geometry%22%2F%3E%3C%2FmxCell%3E%3C%2Froot%3E%3C%2FmxGraphModel%3E&lt;/span&gt;" style="edgeLabel;html=1;align=center;verticalAlign=middle;resizable=0;points=[];" vertex="1" connectable="0" parent="jwciJcvfcXu_lwk04Na5-83">
          <mxGeometry x="-0.0972" y="2" relative="1" as="geometry">
            <mxPoint y="-1" as="offset" />
          </mxGeometry>
        </mxCell>
        <mxCell id="jwciJcvfcXu_lwk04Na5-91" value="&lt;span style=&quot;color: rgba(0, 0, 0, 0); font-family: monospace; font-size: 0px; text-align: start; background-color: rgb(251, 251, 251);&quot;&gt;%3CmxGraphModel%3E%3Croot%3E%3CmxCell%20id%3D%220%22%2F%3E%3CmxCell%20id%3D%221%22%20parent%3D%220%22%2F%3E%3CmxCell%20id%3D%222%22%20value%3D%22%26lt%3Bfont%20style%3D%26quot%3Bfont-size%3A%2020px%3B%26quot%3B%26gt%3BDetail%20About%26amp%3Bnbsp%3B%26lt%3B%2Ffont%26gt%3B%22%20style%3D%22ellipse%3BwhiteSpace%3Dwrap%3Bhtml%3D1%3B%22%20vertex%3D%221%22%20parent%3D%221%22%3E%3CmxGeometry%20x%3D%22870%22%20y%3D%22370%22%20width%3D%22110%22%20height%3D%2280%22%20as%3D%22geometry%22%2F%3E%3C%2FmxCell%3E%3C%2Froot%3E%3C%2FmxGraphModel%3E&lt;/span&gt;" style="edgeLabel;html=1;align=center;verticalAlign=middle;resizable=0;points=[];" vertex="1" connectable="0" parent="jwciJcvfcXu_lwk04Na5-83">
          <mxGeometry x="0.0278" relative="1" as="geometry">
            <mxPoint y="-1" as="offset" />
          </mxGeometry>
        </mxCell>
        <mxCell id="jwciJcvfcXu_lwk04Na5-92" value="&lt;b&gt;&lt;font style=&quot;font-size: 15px;&quot;&gt;&amp;lt;Exclude&amp;gt;&lt;/font&gt;&lt;/b&gt;" style="edgeLabel;html=1;align=center;verticalAlign=middle;resizable=0;points=[];" vertex="1" connectable="0" parent="jwciJcvfcXu_lwk04Na5-83">
          <mxGeometry x="-0.0139" y="2" relative="1" as="geometry">
            <mxPoint y="-1" as="offset" />
          </mxGeometry>
        </mxCell>
        <mxCell id="jwciJcvfcXu_lwk04Na5-11" value="&lt;font style=&quot;font-size: 20px;&quot;&gt;About&lt;/font&gt;" style="ellipse;whiteSpace=wrap;html=1;" vertex="1" parent="1">
          <mxGeometry x="870" y="210" width="120" height="80" as="geometry" />
        </mxCell>
        <mxCell id="jwciJcvfcXu_lwk04Na5-30" value="" style="edgeStyle=orthogonalEdgeStyle;rounded=0;orthogonalLoop=1;jettySize=auto;html=1;" edge="1" parent="1" source="jwciJcvfcXu_lwk04Na5-13" target="jwciJcvfcXu_lwk04Na5-29">
          <mxGeometry relative="1" as="geometry" />
        </mxCell>
        <mxCell id="jwciJcvfcXu_lwk04Na5-45" value="" style="edgeStyle=orthogonalEdgeStyle;rounded=0;orthogonalLoop=1;jettySize=auto;html=1;" edge="1" parent="1" source="jwciJcvfcXu_lwk04Na5-13" target="jwciJcvfcXu_lwk04Na5-29">
          <mxGeometry relative="1" as="geometry" />
        </mxCell>
        <mxCell id="jwciJcvfcXu_lwk04Na5-46" value="&lt;b style=&quot;font-size: 15px;&quot;&gt;&amp;lt;Include&amp;gt;&lt;/b&gt;" style="edgeLabel;html=1;align=center;verticalAlign=middle;resizable=0;points=[];" vertex="1" connectable="0" parent="jwciJcvfcXu_lwk04Na5-45">
          <mxGeometry x="-0.2622" y="1" relative="1" as="geometry">
            <mxPoint as="offset" />
          </mxGeometry>
        </mxCell>
        <mxCell id="jwciJcvfcXu_lwk04Na5-13" value="&lt;font style=&quot;font-size: 20px;&quot;&gt;User Login&lt;/font&gt;" style="ellipse;whiteSpace=wrap;html=1;" vertex="1" parent="1">
          <mxGeometry x="1140" y="210" width="120" height="80" as="geometry" />
        </mxCell>
        <mxCell id="jwciJcvfcXu_lwk04Na5-16" style="edgeStyle=orthogonalEdgeStyle;rounded=0;orthogonalLoop=1;jettySize=auto;html=1;entryX=0.5;entryY=0;entryDx=0;entryDy=0;fontStyle=1" edge="1" parent="1" source="jwciJcvfcXu_lwk04Na5-15" target="jwciJcvfcXu_lwk04Na5-5">
          <mxGeometry relative="1" as="geometry" />
        </mxCell>
        <mxCell id="jwciJcvfcXu_lwk04Na5-38" value="&lt;font style=&quot;font-size: 15px;&quot;&gt;&lt;b&gt;&amp;lt;Include&amp;gt;&lt;/b&gt;&lt;/font&gt;" style="edgeLabel;html=1;align=center;verticalAlign=middle;resizable=0;points=[];" vertex="1" connectable="0" parent="jwciJcvfcXu_lwk04Na5-16">
          <mxGeometry x="-0.3327" relative="1" as="geometry">
            <mxPoint as="offset" />
          </mxGeometry>
        </mxCell>
        <mxCell id="jwciJcvfcXu_lwk04Na5-17" style="edgeStyle=orthogonalEdgeStyle;rounded=0;orthogonalLoop=1;jettySize=auto;html=1;" edge="1" parent="1" source="jwciJcvfcXu_lwk04Na5-15" target="jwciJcvfcXu_lwk04Na5-7">
          <mxGeometry relative="1" as="geometry">
            <Array as="points">
              <mxPoint x="685" y="160" />
              <mxPoint x="430" y="160" />
            </Array>
          </mxGeometry>
        </mxCell>
        <mxCell id="jwciJcvfcXu_lwk04Na5-42" value="&lt;font style=&quot;font-size: 16px;&quot;&gt;&lt;b&gt;&amp;lt;Include&amp;gt;&lt;/b&gt;&lt;/font&gt;" style="edgeLabel;html=1;align=center;verticalAlign=middle;resizable=0;points=[];" vertex="1" connectable="0" parent="jwciJcvfcXu_lwk04Na5-17">
          <mxGeometry x="-0.158" y="-1" relative="1" as="geometry">
            <mxPoint as="offset" />
          </mxGeometry>
        </mxCell>
        <mxCell id="jwciJcvfcXu_lwk04Na5-43" value="&lt;font style=&quot;font-size: 16px;&quot;&gt;&lt;b&gt;&amp;lt;Include&amp;gt;&lt;/b&gt;&lt;/font&gt;" style="edgeLabel;html=1;align=center;verticalAlign=middle;resizable=0;points=[];" vertex="1" connectable="0" parent="jwciJcvfcXu_lwk04Na5-17">
          <mxGeometry x="-0.158" y="-1" relative="1" as="geometry">
            <mxPoint x="200" as="offset" />
          </mxGeometry>
        </mxCell>
        <mxCell id="jwciJcvfcXu_lwk04Na5-44" value="&lt;font style=&quot;font-size: 16px;&quot;&gt;&lt;b&gt;&amp;lt;Include&amp;gt;&lt;/b&gt;&lt;/font&gt;" style="edgeLabel;html=1;align=center;verticalAlign=middle;resizable=0;points=[];" vertex="1" connectable="0" parent="jwciJcvfcXu_lwk04Na5-17">
          <mxGeometry x="-0.158" y="-1" relative="1" as="geometry">
            <mxPoint x="113" y="24" as="offset" />
          </mxGeometry>
        </mxCell>
        <mxCell id="jwciJcvfcXu_lwk04Na5-20" style="edgeStyle=orthogonalEdgeStyle;rounded=0;orthogonalLoop=1;jettySize=auto;html=1;" edge="1" parent="1" source="jwciJcvfcXu_lwk04Na5-15" target="jwciJcvfcXu_lwk04Na5-13">
          <mxGeometry relative="1" as="geometry" />
        </mxCell>
        <mxCell id="jwciJcvfcXu_lwk04Na5-41" value="&lt;span style=&quot;font-size: 15px;&quot;&gt;&lt;b&gt;&amp;lt;Include&amp;gt;&lt;/b&gt;&lt;/span&gt;" style="edgeLabel;html=1;align=center;verticalAlign=middle;resizable=0;points=[];" vertex="1" connectable="0" parent="jwciJcvfcXu_lwk04Na5-20">
          <mxGeometry x="-0.2638" y="-2" relative="1" as="geometry">
            <mxPoint x="-10" as="offset" />
          </mxGeometry>
        </mxCell>
        <mxCell id="jwciJcvfcXu_lwk04Na5-15" value="&lt;font size=&quot;1&quot; style=&quot;&quot;&gt;&lt;b style=&quot;font-size: 27px;&quot;&gt;Navbar&lt;/b&gt;&lt;/font&gt;" style="ellipse;whiteSpace=wrap;html=1;" vertex="1" parent="1">
          <mxGeometry x="610" y="50" width="150" height="80" as="geometry" />
        </mxCell>
        <mxCell id="jwciJcvfcXu_lwk04Na5-24" value="" style="edgeStyle=orthogonalEdgeStyle;rounded=0;orthogonalLoop=1;jettySize=auto;html=1;" edge="1" parent="1" source="jwciJcvfcXu_lwk04Na5-21" target="jwciJcvfcXu_lwk04Na5-23">
          <mxGeometry relative="1" as="geometry" />
        </mxCell>
        <mxCell id="jwciJcvfcXu_lwk04Na5-49" value="&lt;b style=&quot;font-size: 15px;&quot;&gt;&amp;lt;Exclude&amp;gt;&lt;/b&gt;" style="edgeLabel;html=1;align=center;verticalAlign=middle;resizable=0;points=[];" vertex="1" connectable="0" parent="jwciJcvfcXu_lwk04Na5-24">
          <mxGeometry x="-0.1702" y="-1" relative="1" as="geometry">
            <mxPoint y="-1" as="offset" />
          </mxGeometry>
        </mxCell>
        <mxCell id="jwciJcvfcXu_lwk04Na5-21" value="&lt;font style=&quot;font-size: 20px;&quot;&gt;Main Detail&amp;nbsp;&lt;/font&gt;" style="ellipse;whiteSpace=wrap;html=1;" vertex="1" parent="1">
          <mxGeometry x="130" y="370" width="120" height="80" as="geometry" />
        </mxCell>
        <mxCell id="jwciJcvfcXu_lwk04Na5-84" style="edgeStyle=orthogonalEdgeStyle;rounded=0;orthogonalLoop=1;jettySize=auto;html=1;" edge="1" parent="1" source="jwciJcvfcXu_lwk04Na5-23" target="jwciJcvfcXu_lwk04Na5-55">
          <mxGeometry relative="1" as="geometry">
            <Array as="points">
              <mxPoint x="190" y="970" />
            </Array>
          </mxGeometry>
        </mxCell>
        <mxCell id="jwciJcvfcXu_lwk04Na5-98" value="&lt;b&gt;&lt;font style=&quot;font-size: 15px;&quot;&gt;&amp;lt;Exclude&amp;gt;&lt;/font&gt;&lt;/b&gt;" style="edgeLabel;html=1;align=center;verticalAlign=middle;resizable=0;points=[];" vertex="1" connectable="0" parent="jwciJcvfcXu_lwk04Na5-84">
          <mxGeometry x="0.5345" relative="1" as="geometry">
            <mxPoint as="offset" />
          </mxGeometry>
        </mxCell>
        <mxCell id="jwciJcvfcXu_lwk04Na5-23" value="&lt;font style=&quot;font-size: 20px;&quot;&gt;Subscribe Section&lt;/font&gt;" style="ellipse;whiteSpace=wrap;html=1;" vertex="1" parent="1">
          <mxGeometry x="130" y="530" width="120" height="80" as="geometry" />
        </mxCell>
        <mxCell id="jwciJcvfcXu_lwk04Na5-28" value="" style="edgeStyle=orthogonalEdgeStyle;rounded=0;orthogonalLoop=1;jettySize=auto;html=1;" edge="1" parent="1" source="jwciJcvfcXu_lwk04Na5-25" target="jwciJcvfcXu_lwk04Na5-27">
          <mxGeometry relative="1" as="geometry" />
        </mxCell>
        <mxCell id="jwciJcvfcXu_lwk04Na5-58" value="&lt;b style=&quot;font-size: 15px;&quot;&gt;&amp;lt;Exlude&amp;gt;&lt;/b&gt;" style="edgeLabel;html=1;align=center;verticalAlign=middle;resizable=0;points=[];" vertex="1" connectable="0" parent="jwciJcvfcXu_lwk04Na5-28">
          <mxGeometry x="-0.065" y="1" relative="1" as="geometry">
            <mxPoint y="1" as="offset" />
          </mxGeometry>
        </mxCell>
        <mxCell id="jwciJcvfcXu_lwk04Na5-25" value="&lt;font style=&quot;font-size: 20px;&quot;&gt;Kategori Product&lt;/font&gt;" style="ellipse;whiteSpace=wrap;html=1;" vertex="1" parent="1">
          <mxGeometry x="370" y="370" width="120" height="80" as="geometry" />
        </mxCell>
        <mxCell id="jwciJcvfcXu_lwk04Na5-67" value="" style="edgeStyle=orthogonalEdgeStyle;rounded=0;orthogonalLoop=1;jettySize=auto;html=1;" edge="1" parent="1" source="jwciJcvfcXu_lwk04Na5-27" target="jwciJcvfcXu_lwk04Na5-66">
          <mxGeometry relative="1" as="geometry" />
        </mxCell>
        <mxCell id="jwciJcvfcXu_lwk04Na5-69" value="&lt;b style=&quot;font-size: 15px;&quot;&gt;&amp;lt;Exlude&amp;gt;&lt;/b&gt;" style="edgeLabel;html=1;align=center;verticalAlign=middle;resizable=0;points=[];" vertex="1" connectable="0" parent="jwciJcvfcXu_lwk04Na5-67">
          <mxGeometry x="-0.0755" y="-1" relative="1" as="geometry">
            <mxPoint as="offset" />
          </mxGeometry>
        </mxCell>
        <mxCell id="jwciJcvfcXu_lwk04Na5-27" value="&lt;font style=&quot;font-size: 20px;&quot;&gt;Detail Product&lt;/font&gt;" style="ellipse;whiteSpace=wrap;html=1;" vertex="1" parent="1">
          <mxGeometry x="370" y="530" width="120" height="80" as="geometry" />
        </mxCell>
        <mxCell id="jwciJcvfcXu_lwk04Na5-32" value="" style="edgeStyle=orthogonalEdgeStyle;rounded=0;orthogonalLoop=1;jettySize=auto;html=1;" edge="1" parent="1" source="jwciJcvfcXu_lwk04Na5-29" target="jwciJcvfcXu_lwk04Na5-31">
          <mxGeometry relative="1" as="geometry" />
        </mxCell>
        <mxCell id="jwciJcvfcXu_lwk04Na5-47" value="&lt;b style=&quot;font-size: 15px;&quot;&gt;&amp;lt;Include&amp;gt;&lt;/b&gt;" style="edgeLabel;html=1;align=center;verticalAlign=middle;resizable=0;points=[];" vertex="1" connectable="0" parent="jwciJcvfcXu_lwk04Na5-32">
          <mxGeometry x="0.0639" y="1" relative="1" as="geometry">
            <mxPoint as="offset" />
          </mxGeometry>
        </mxCell>
        <mxCell id="jwciJcvfcXu_lwk04Na5-29" value="&lt;font style=&quot;font-size: 20px;&quot;&gt;Sign in&lt;/font&gt;" style="ellipse;whiteSpace=wrap;html=1;" vertex="1" parent="1">
          <mxGeometry x="1140" y="370" width="120" height="80" as="geometry" />
        </mxCell>
        <mxCell id="jwciJcvfcXu_lwk04Na5-89" style="edgeStyle=orthogonalEdgeStyle;rounded=0;orthogonalLoop=1;jettySize=auto;html=1;entryX=1;entryY=0.5;entryDx=0;entryDy=0;" edge="1" parent="1" source="jwciJcvfcXu_lwk04Na5-31" target="jwciJcvfcXu_lwk04Na5-55">
          <mxGeometry relative="1" as="geometry">
            <Array as="points">
              <mxPoint x="1200" y="970" />
            </Array>
          </mxGeometry>
        </mxCell>
        <mxCell id="jwciJcvfcXu_lwk04Na5-97" value="&lt;b&gt;&lt;font style=&quot;font-size: 15px;&quot;&gt;&amp;lt;Exclude&amp;gt;&lt;/font&gt;&lt;/b&gt;" style="edgeLabel;html=1;align=center;verticalAlign=middle;resizable=0;points=[];" vertex="1" connectable="0" parent="jwciJcvfcXu_lwk04Na5-89">
          <mxGeometry x="0.486" y="3" relative="1" as="geometry">
            <mxPoint as="offset" />
          </mxGeometry>
        </mxCell>
        <mxCell id="jwciJcvfcXu_lwk04Na5-31" value="&lt;font style=&quot;font-size: 20px;&quot;&gt;Sign up&lt;/font&gt;" style="ellipse;whiteSpace=wrap;html=1;" vertex="1" parent="1">
          <mxGeometry x="1140" y="530" width="120" height="80" as="geometry" />
        </mxCell>
        <mxCell id="jwciJcvfcXu_lwk04Na5-55" value="&lt;font size=&quot;1&quot; style=&quot;&quot;&gt;&lt;b style=&quot;font-size: 27px;&quot;&gt;Footer&lt;/b&gt;&lt;/font&gt;" style="ellipse;whiteSpace=wrap;html=1;" vertex="1" parent="1">
          <mxGeometry x="610" y="930" width="150" height="80" as="geometry" />
        </mxCell>
        <mxCell id="jwciJcvfcXu_lwk04Na5-85" style="edgeStyle=orthogonalEdgeStyle;rounded=0;orthogonalLoop=1;jettySize=auto;html=1;" edge="1" parent="1" source="jwciJcvfcXu_lwk04Na5-66" target="jwciJcvfcXu_lwk04Na5-55">
          <mxGeometry relative="1" as="geometry">
            <Array as="points">
              <mxPoint x="430" y="840" />
              <mxPoint x="685" y="840" />
            </Array>
          </mxGeometry>
        </mxCell>
        <mxCell id="jwciJcvfcXu_lwk04Na5-95" value="&lt;b&gt;&lt;font style=&quot;font-size: 15px;&quot;&gt;&amp;lt;Exclude&amp;gt;&lt;/font&gt;&lt;/b&gt;" style="edgeLabel;html=1;align=center;verticalAlign=middle;resizable=0;points=[];" vertex="1" connectable="0" parent="jwciJcvfcXu_lwk04Na5-85">
          <mxGeometry x="-0.0987" y="3" relative="1" as="geometry">
            <mxPoint as="offset" />
          </mxGeometry>
        </mxCell>
        <mxCell id="jwciJcvfcXu_lwk04Na5-66" value="&lt;font style=&quot;font-size: 20px;&quot;&gt;Detail&amp;nbsp;&lt;/font&gt;&lt;div&gt;&lt;span style=&quot;font-size: 20px;&quot;&gt;Feature&lt;/span&gt;&lt;/div&gt;" style="ellipse;whiteSpace=wrap;html=1;" vertex="1" parent="1">
          <mxGeometry x="370" y="690" width="120" height="80" as="geometry" />
        </mxCell>
        <mxCell id="jwciJcvfcXu_lwk04Na5-73" value="" style="edgeStyle=orthogonalEdgeStyle;rounded=0;orthogonalLoop=1;jettySize=auto;html=1;" edge="1" parent="1" source="jwciJcvfcXu_lwk04Na5-70" target="jwciJcvfcXu_lwk04Na5-72">
          <mxGeometry relative="1" as="geometry" />
        </mxCell>
        <mxCell id="jwciJcvfcXu_lwk04Na5-78" value="&lt;b style=&quot;font-size: 15px;&quot;&gt;&amp;lt;Include&amp;gt;&lt;/b&gt;" style="edgeLabel;html=1;align=center;verticalAlign=middle;resizable=0;points=[];" vertex="1" connectable="0" parent="jwciJcvfcXu_lwk04Na5-73">
          <mxGeometry x="-0.0054" y="-1" relative="1" as="geometry">
            <mxPoint as="offset" />
          </mxGeometry>
        </mxCell>
        <mxCell id="jwciJcvfcXu_lwk04Na5-70" value="&lt;font style=&quot;font-size: 20px;&quot;&gt;Input Name&lt;/font&gt;" style="ellipse;whiteSpace=wrap;html=1;" vertex="1" parent="1">
          <mxGeometry x="625" y="370" width="120" height="80" as="geometry" />
        </mxCell>
        <mxCell id="jwciJcvfcXu_lwk04Na5-75" value="" style="edgeStyle=orthogonalEdgeStyle;rounded=0;orthogonalLoop=1;jettySize=auto;html=1;" edge="1" parent="1" source="jwciJcvfcXu_lwk04Na5-72" target="jwciJcvfcXu_lwk04Na5-74">
          <mxGeometry relative="1" as="geometry" />
        </mxCell>
        <mxCell id="jwciJcvfcXu_lwk04Na5-79" value="&lt;b style=&quot;font-size: 15px;&quot;&gt;&amp;lt;Include&amp;gt;&lt;/b&gt;" style="edgeLabel;html=1;align=center;verticalAlign=middle;resizable=0;points=[];" vertex="1" connectable="0" parent="jwciJcvfcXu_lwk04Na5-75">
          <mxGeometry x="-0.1054" y="-2" relative="1" as="geometry">
            <mxPoint as="offset" />
          </mxGeometry>
        </mxCell>
        <mxCell id="jwciJcvfcXu_lwk04Na5-72" value="&lt;font style=&quot;font-size: 20px;&quot;&gt;Input Email&lt;/font&gt;" style="ellipse;whiteSpace=wrap;html=1;" vertex="1" parent="1">
          <mxGeometry x="625" y="530" width="120" height="80" as="geometry" />
        </mxCell>
        <mxCell id="jwciJcvfcXu_lwk04Na5-87" style="edgeStyle=orthogonalEdgeStyle;rounded=0;orthogonalLoop=1;jettySize=auto;html=1;" edge="1" parent="1" source="jwciJcvfcXu_lwk04Na5-74" target="jwciJcvfcXu_lwk04Na5-55">
          <mxGeometry relative="1" as="geometry" />
        </mxCell>
        <mxCell id="jwciJcvfcXu_lwk04Na5-74" value="&lt;font style=&quot;font-size: 20px;&quot;&gt;Input Message&lt;/font&gt;" style="ellipse;whiteSpace=wrap;html=1;" vertex="1" parent="1">
          <mxGeometry x="625" y="690" width="120" height="80" as="geometry" />
        </mxCell>
        <mxCell id="jwciJcvfcXu_lwk04Na5-88" style="edgeStyle=orthogonalEdgeStyle;rounded=0;orthogonalLoop=1;jettySize=auto;html=1;" edge="1" parent="1" source="jwciJcvfcXu_lwk04Na5-82" target="jwciJcvfcXu_lwk04Na5-55">
          <mxGeometry relative="1" as="geometry">
            <Array as="points">
              <mxPoint x="930" y="840" />
              <mxPoint x="685" y="840" />
            </Array>
          </mxGeometry>
        </mxCell>
        <mxCell id="jwciJcvfcXu_lwk04Na5-94" value="&lt;b&gt;&lt;font style=&quot;font-size: 15px;&quot;&gt;&amp;lt;Exclude&amp;gt;&lt;/font&gt;&lt;/b&gt;" style="edgeLabel;html=1;align=center;verticalAlign=middle;resizable=0;points=[];" vertex="1" connectable="0" parent="jwciJcvfcXu_lwk04Na5-88">
          <mxGeometry x="0.3875" y="-6" relative="1" as="geometry">
            <mxPoint as="offset" />
          </mxGeometry>
        </mxCell>
        <mxCell id="jwciJcvfcXu_lwk04Na5-96" value="&lt;b&gt;&lt;font style=&quot;font-size: 15px;&quot;&gt;&amp;lt;Exclude&amp;gt;&lt;/font&gt;&lt;/b&gt;" style="edgeLabel;html=1;align=center;verticalAlign=middle;resizable=0;points=[];" vertex="1" connectable="0" parent="jwciJcvfcXu_lwk04Na5-88">
          <mxGeometry x="0.8379" y="2" relative="1" as="geometry">
            <mxPoint y="1" as="offset" />
          </mxGeometry>
        </mxCell>
        <mxCell id="jwciJcvfcXu_lwk04Na5-82" value="&lt;font style=&quot;font-size: 20px;&quot;&gt;Detail About&amp;nbsp;&lt;/font&gt;" style="ellipse;whiteSpace=wrap;html=1;" vertex="1" parent="1">
          <mxGeometry x="870" y="370" width="120" height="80" as="geometry" />
        </mxCell>
      </root>
    </mxGraphModel>
  </diagram>
</mxfile>
